<svg height='100px' width='100px'  fill="#000000" xmlns="http://www.w3.org/2000/svg" xmlns:xlink="http://www.w3.org/1999/xlink" version="1.0" x="0px" y="0px" viewBox="0 0 128 128" style="enable-background:new 0 0 128 128;" xml:space="preserve"><style type="text/css">
	.st0{display:none;}
	.st1{display:inline;}
	.st2{fill:none;stroke:#000000;stroke-width:0.1;stroke-miterlimit:10;}
</style><g class="st0"><g class="st1"><rect class="st2" width="128" height="128"></rect><line class="st2" x1="0" y1="124" x2="128" y2="124"></line><line class="st2" x1="0" y1="120" x2="128" y2="120"></line><line class="st2" x1="0" y1="116" x2="128" y2="116"></line><line class="st2" x1="0" y1="112" x2="128" y2="112"></line><line class="st2" x1="0" y1="108" x2="128" y2="108"></line><line class="st2" x1="0" y1="104" x2="128" y2="104"></line><line class="st2" x1="0" y1="100" x2="128" y2="100"></line><line class="st2" x1="0" y1="96" x2="128" y2="96"></line><line class="st2" x1="0" y1="92" x2="128" y2="92"></line><line class="st2" x1="0" y1="88" x2="128" y2="88"></line><line class="st2" x1="0" y1="84" x2="128" y2="84"></line><line class="st2" x1="0" y1="80" x2="128" y2="80"></line><line class="st2" x1="0" y1="76" x2="128" y2="76"></line><line class="st2" x1="0" y1="72" x2="128" y2="72"></line><line class="st2" x1="0" y1="68" x2="128" y2="68"></line><line class="st2" x1="0" y1="64" x2="128" y2="64"></line><line class="st2" x1="0" y1="60" x2="128" y2="60"></line><line class="st2" x1="0" y1="56" x2="128" y2="56"></line><line class="st2" x1="0" y1="52" x2="128" y2="52"></line><line class="st2" x1="0" y1="48" x2="128" y2="48"></line><line class="st2" x1="0" y1="44" x2="128" y2="44"></line><line class="st2" x1="0" y1="40" x2="128" y2="40"></line><line class="st2" x1="0" y1="36" x2="128" y2="36"></line><line class="st2" x1="0" y1="32" x2="128" y2="32"></line><line class="st2" x1="0" y1="28" x2="128" y2="28"></line><line class="st2" x1="0" y1="24" x2="128" y2="24"></line><line class="st2" x1="0" y1="20" x2="128" y2="20"></line><line class="st2" x1="0" y1="16" x2="128" y2="16"></line><line class="st2" x1="0" y1="12" x2="128" y2="12"></line><line class="st2" x1="0" y1="8" x2="128" y2="8"></line><line class="st2" x1="0" y1="4" x2="128" y2="4"></line><line class="st2" x1="124" y1="0" x2="124" y2="128"></line><line class="st2" x1="120" y1="0" x2="120" y2="128"></line><line class="st2" x1="116" y1="0" x2="116" y2="128"></line><line class="st2" x1="112" y1="0" x2="112" y2="128"></line><line class="st2" x1="108" y1="0" x2="108" y2="128"></line><line class="st2" x1="104" y1="0" x2="104" y2="128"></line><line class="st2" x1="100" y1="0" x2="100" y2="128"></line><line class="st2" x1="96" y1="0" x2="96" y2="128"></line><line class="st2" x1="92" y1="0" x2="92" y2="128"></line><line class="st2" x1="88" y1="0" x2="88" y2="128"></line><line class="st2" x1="84" y1="0" x2="84" y2="128"></line><line class="st2" x1="80" y1="0" x2="80" y2="128"></line><line class="st2" x1="76" y1="0" x2="76" y2="128"></line><line class="st2" x1="72" y1="0" x2="72" y2="128"></line><line class="st2" x1="68" y1="0" x2="68" y2="128"></line><line class="st2" x1="64" y1="0" x2="64" y2="128"></line><line class="st2" x1="60" y1="0" x2="60" y2="128"></line><line class="st2" x1="56" y1="0" x2="56" y2="128"></line><line class="st2" x1="52" y1="0" x2="52" y2="128"></line><line class="st2" x1="48" y1="0" x2="48" y2="128"></line><line class="st2" x1="44" y1="0" x2="44" y2="128"></line><line class="st2" x1="40" y1="0" x2="40" y2="128"></line><line class="st2" x1="36" y1="0" x2="36" y2="128"></line><line class="st2" x1="32" y1="0" x2="32" y2="128"></line><line class="st2" x1="28" y1="0" x2="28" y2="128"></line><line class="st2" x1="24" y1="0" x2="24" y2="128"></line><line class="st2" x1="20" y1="0" x2="20" y2="128"></line><line class="st2" x1="16" y1="0" x2="16" y2="128"></line><line class="st2" x1="12" y1="0" x2="12" y2="128"></line><line class="st2" x1="8" y1="0" x2="8" y2="128"></line><line class="st2" x1="4" y1="0" x2="4" y2="128"></line></g></g><g><g><path d="M102.3,42.2h-5.9c0.6-2.4,1-4.9,1-7.4C97.4,20,86.3,8,72.6,8c-9.1,0-17.3,5.3-21.7,13.8c-2.5-0.8-5-1.1-7.5-1.1    c-13.1,0-24,10.1-24.7,22.7C8.2,46.7,0.9,57,0.9,69c0,9.2,7,16.7,15.5,16.7h16.1c0.8,0,1.5-0.7,1.5-1.5s-0.7-1.5-1.5-1.5H16.4    C9.5,82.7,3.9,76.5,3.9,69c0-10.8,7-20.5,16.6-23.1c0.7-0.2,1.1-0.8,1.1-1.4c0.1-11.5,9.9-20.8,21.8-20.8c2.6,0,5.2,0.5,7.7,1.4    c0.7,0.3,1.6-0.1,1.9-0.8C56.8,16.1,64.2,11,72.6,11c12,0,21.8,10.7,21.8,23.8c0,2.8-0.5,5.6-1.4,8.4c-0.2,0.5-0.1,1,0.2,1.4    c0.3,0.4,0.7,0.6,1.2,0.6h7.9c12,0,21.8,10.7,21.8,23.8c0,7.5-5.6,13.7-12.5,13.7H95.9c-0.8,0-1.5,0.7-1.5,1.5s0.7,1.5,1.5,1.5    h15.7c8.5,0,15.5-7.5,15.5-16.7C127.1,54.2,116,42.2,102.3,42.2z"></path><path d="M52.1,47.2c-0.8,0-1.5,0.7-1.5,1.5s0.7,1.5,1.5,1.5c18.4,0,33.4,15,33.4,33.4S70.5,117,52.1,117c-0.8,0-1.5,0.7-1.5,1.5    s0.7,1.5,1.5,1.5c20.1,0,36.4-16.3,36.4-36.4S72.1,47.2,52.1,47.2z"></path><path d="M39.5,83.6c0,9.1,7.7,16.5,17.1,16.5s17.1-7.4,17.1-16.5S66,67.2,56.6,67.2S39.5,74.6,39.5,83.6z M56.6,70.2    c7.8,0,14.1,6,14.1,13.5s-6.3,13.5-14.1,13.5c-7.8,0-14.1-6-14.1-13.5S48.9,70.2,56.6,70.2z"></path></g></g></svg>