<svg height='100px' width='100px'  fill="#000000" xmlns="http://www.w3.org/2000/svg" xmlns:xlink="http://www.w3.org/1999/xlink" version="1.1" x="0px" y="0px" viewBox="0 0 595.3 678" style="enable-background:new 0 0 595.3 678;" xml:space="preserve"><g><circle cx="393" cy="263.1" r="6.6"></circle><circle cx="370.6" cy="270.8" r="6.6"></circle><circle cx="348.1" cy="275.5" r="6.6"></circle><circle cx="395" cy="404.3" r="6.6"></circle><path d="M248.6,375.5c-2.3-1.3-4.5-2.6-6.8-4c-4.1-0.6-8-1.2-11.9-1.9c0.5,8.3,1,16.5,1.7,24.5   c5.2,0.9,10.6,1.6,16.1,2.2c6.7-3.2,13.4-6.5,20.1-10C261.4,382.8,255,379.2,248.6,375.5z"></path><path d="M209.3,436.1c-11.4,4.8-22.6,9.1-33.5,13c3.8,1.8,8,3.6,12.6,5.3c9.3,3.4,19.7,6.3,30.7,8.7   c-1.3-8.2-2.5-16.6-3.6-25.3C213.4,437.2,211.3,436.7,209.3,436.1z"></path><path d="M520.2,386.1c2.6-3.8,4.2-8.5,4.2-13.5c0-13.2-10.7-23.9-23.9-23.9c-4.7,0-9.1,1.4-12.8,3.7   c-14.2-13.1-30.6-26.8-48.8-40.6v-7.3c-7.7,5.8-15.6,11.6-23.8,17.4V335l-0.1,0c0.1,0.4,0.1,0.8,0.1,1.1c0,5.8-8.5,15.8-32.4,24.6   c-13,4.8-28.3,8.4-45.1,10.8c-2.3,1.3-4.5,2.7-6.8,4c-6.4,3.7-12.8,7.3-19.2,10.8c6.7,3.4,13.4,6.8,20.1,10   c22-2.5,42.3-7,59.2-13.2c9.9-3.6,17.8-7.6,24.2-11.6v34.8c0,0,0,0.8,0,1.1c0,4.3-4.7,11-17.1,17.7c9.4,3.6,18.5,6.9,27.4,9.8   c10.6-9.8,13.5-19.6,13.5-27.5v-84.6c15.8,12.2,29.9,24.2,42.3,35.6c-2.9,4-4.6,8.8-4.6,14.1c0,13.2,10.7,23.9,23.9,23.9   c5,0,9.6-1.5,13.5-4.2c20.2,24.1,28.7,43.6,22.4,54.5c-8.2,14.3-43.3,14.1-93.7-0.4c-53.8-15.5-120-45.2-186.6-83.6   c-8.8-5.1-17.5-10.3-26.1-15.5c0.1,3.5,0.3,7.1,0.4,10.6c7,4.2,14.1,8.4,21.3,12.6c67.2,38.8,134.2,68.8,188.6,84.4   c21.3,6.1,45.5,11.4,65.6,11.4c17.5,0,31.8-4,38.2-15.1c7.8-13.6,1.4-33.7-19.3-59.7C523.2,389.7,521.7,387.9,520.2,386.1z"></path><path d="M543.9,158c-0.1-0.1-0.1-0.3-0.2-0.4c-6.6-11.5-22.6-16.4-47.4-14.7c-20.4,1.4-46.9,7.4-77.2,17.5   c-6.9-5-16.1-9.9-28.3-14.4c-11.4-4.2-24.3-7.6-38.3-10.2c-6.3-35.5-14.6-65.2-24.1-86.4c-11.5-25.6-24.5-38.6-38.8-38.6   c-3.8,0-7.5,0.9-10.9,2.7c-3.3-1.7-7-2.7-10.9-2.7c-13.2,0-23.9,10.7-23.9,23.9c0,6.3,2.4,11.9,6.3,16.2   c-6.5,14.9-11.7,32-15.6,47.9c-13.7,55-21.2,127.9-21.2,205.5S220.9,455,234.6,510c7.7,31,20,66.7,37.8,81.3   c0.3,13,10.9,23.4,23.9,23.4c13.2,0,23.9-10.7,23.9-23.9c0-4.1-1-8-2.8-11.3c20.1-29,31.6-84.7,36.6-115.1   c13.4-2.5,25.8-5.8,36.8-9.9c4.6-1.7,8.8-3.5,12.7-5.3c-10.8-3.9-22-8.3-33.5-13c-22.8,6.5-50.8,10-80.4,10   c-18.5,0-36.4-1.4-52.8-4c1.2,8.4,2.4,16.7,3.8,24.6c15.5,2.1,32.1,3.2,49.1,3.2c19.2,0,37.9-1.4,55.2-4.1   c-8.2,48.7-20.2,86.2-33.2,106.4c-4.1-3.4-9.4-5.5-15.2-5.5c-9.7,0-18.1,5.8-21.8,14.2c-11.5-12.3-22.6-37.7-31.4-73.2   c-13.5-54.3-20.9-126.5-20.9-203.4s7.4-149.1,20.9-203.4c4.3-17.4,9.2-32.4,14.4-44.6c3.1,1.5,6.6,2.3,10.3,2.3   c13.2,0,23.9-10.7,23.9-23.9c0-5.6-1.9-10.7-5.1-14.8c1-0.2,2-0.3,3.1-0.3c10.3,0,20.9,11.6,30.7,33.5c9,20,16.8,47.9,22.9,81.3   c-16.9-2.5-35-3.9-53.7-3.9c-16.4,0-32.4,1-47.5,3c-1.5,8-2.8,16.2-4.1,24.7c16.1-2.5,33.5-3.8,51.6-3.8c35.3,0,68.3,5,93,14.1   c23.9,8.8,32.4,18.7,32.4,24.6c0,5.8-8.5,15.8-32.4,24.6c-24.6,9.1-57.7,14.1-93,14.1c-20.9,0-40.9-1.7-58.9-5   c-0.5,7.9-1,15.9-1.4,23.9c18.7,3.2,39.2,4.9,60.3,4.9c38,0,74-5.5,101.2-15.5c9.9-3.6,17.8-7.6,24.2-11.6v35.3l-0.1,0   c0.1,0.4,0.1,0.8,0.1,1.1c0,5.8-8.5,15.8-32.4,24.6c-24.6,9.1-57.7,14.1-93,14.1c-21.9,0-42.9-1.9-61.5-5.5c0,2.1,0,4.3,0,6.4   c0,6,0,11.9,0.1,17.8c19,3.4,39.9,5.1,61.4,5.1c38,0,74-5.5,101.2-15.5c2.1-0.8,4.2-1.6,6.1-2.4c14.8-10.3,28.8-20.6,41.9-30.8   v-88.2c-0.6-7-3.6-15.2-11.8-23.4c53.7-17.3,92.8-20.5,106.1-8.7c-10.2,2.8-17.6,12-17.6,23.1c0,8,4,15.1,10,19.5   c-8.3,12.4-20.7,26.7-36.6,42c-30.5,29.4-76.3,63.9-123.3,94.1c-5.4,3.4-10.8,6.8-16.3,10.2c0,0,0,0,0,0   c-8.5,5.2-17.2,10.4-26.1,15.5c-9.2,5.3-18.3,10.4-27.4,15.3c3.1,1.7,6.3,3.3,9.4,4.9c7.5-4.1,15-8.3,22.5-12.6c1.7-1,3.3-2,5-2.9   l0,0c12.6-7.4,25.2-15,37.3-22.7c0,0,0,0,0,0c0,0,0,0,0.1,0c0.1-0.1,0.2-0.1,0.3-0.2l0,0c49.5-31.5,92.8-64.5,124.7-95.2   c14-13.5,28.5-29.2,38.7-44.6c1.8,0.5,3.8,0.7,5.7,0.7c13.2,0,23.9-10.7,23.9-23.9C563.3,169.8,554.9,160.1,543.9,158z"></path><path d="M46.8,227.5c0,13.2,10.7,23.9,23.9,23.9c4.4,0,8.5-1.2,12.1-3.3c0.4,0.4,0.9,0.8,1.3,1.3   c32,30.8,75.4,63.9,125.1,95.5c-0.1-3.5-0.2-7.1-0.3-10.6c-47.1-30.3-88.2-61.8-118.7-91.2c-0.2-0.2-0.5-0.5-0.7-0.7   c3.2-4.1,5.2-9.2,5.2-14.9c0-13.2-10.7-23.9-23.9-23.9c-4.7,0-9,1.3-12.7,3.7c-14.8-20-20.3-35.9-15-45.2   c9.2-15.9,50.4-13.8,109,5.1c-7,6.9-10.4,13.8-11.6,20v91.5c13.1,10.3,27.1,20.6,42,30.9c1.9,0.8,3.9,1.6,6,2.4   c6,2.2,12.4,4.2,19.2,6c0-4.4-0.1-8.9-0.1-13.4c0-3.8,0-7.6,0.1-11.4c-3.8-1.1-7.5-2.3-10.9-3.6c-23.9-8.8-32.4-18.7-32.4-24.6   c0-0.3,0-0.6,0.1-0.9l-0.1,0v-35.6c6.3,4,14.3,7.9,24.2,11.6c6.4,2.4,13.3,4.5,20.6,6.3c0.4-8.2,0.9-16.3,1.5-24.3   c-4.8-1.3-9.5-2.8-13.8-4.4c-23.9-8.8-32.4-18.7-32.4-24.6c0-5.8,8.5-15.8,32.4-24.6c6.2-2.3,12.9-4.3,20-6   c1.2-8.7,2.5-17.1,3.9-25.3c-11.6,2.4-22.5,5.4-32.2,9c-12.2,4.5-21.4,9.4-28.5,14.4c-30.2-10.1-56.8-16.1-77.2-17.5   c-24.8-1.7-40.8,3.2-47.4,14.7c-8.5,14.7,0.8,35.3,16.1,55.6C48.6,217.3,46.8,222.2,46.8,227.5z"></path><path d="M379.1,412.1c0-3.6-2.9-6.6-6.6-6.6c-3.6,0-6.6,2.9-6.6,6.6c0,0,0,0,0,0c3.7,1.6,7.4,3.2,11.1,4.7   C378.3,415.6,379.1,413.9,379.1,412.1z"></path><path d="M348.1,339.7c-3.6,0-6.6,2.9-6.6,6.6c0,0.4,0,0.7,0.1,1.1c3.5-2.1,6.9-4.2,10.4-6.3   C350.9,340.2,349.6,339.7,348.1,339.7z"></path><path d="M399.6,333.8c0-1.1-0.3-2.1-0.7-3c-0.5,0.3-0.9,0.6-1.4,0.9c-3,2.2-6,4.4-9.1,6.6c1.2,1.2,2.9,2,4.7,2   C396.6,340.3,399.6,337.4,399.6,333.8z"></path><path d="M283.3,394.8c-3.1-1.7-6.2-3.3-9.4-5c-13.8,7.1-27.5,13.7-40.9,19.9c0.3,3.1,0.6,6.2,1,9.2   C250.1,411.5,266.6,403.4,283.3,394.8z"></path><path d="M213.3,418.4c-27.3,11.8-53.2,21.3-76.8,28c-50.4,14.5-85.5,14.7-93.7,0.4c-4.7-8.2-1.2-21.1,9.4-37.2   c3.4,1.8,7.2,2.8,11.3,2.8c13.2,0,23.9-10.7,23.9-23.9c0-5.6-1.9-10.8-5.2-14.9c15.6-15.9,35.3-33.2,58.3-51v84.8   c0,7.9,2.9,17.8,13.5,27.5c8.9-2.9,18-6.2,27.4-9.8c-12.3-6.7-17.1-13.4-17.1-17.7c0-0.3,0-0.6,0.1-0.9l-0.1,0v-35   c6.3,4,14.3,7.9,24.2,11.6c6.9,2.5,14.4,4.8,22.3,6.7c-0.6-8.2-1.2-16.6-1.6-25.1c-4.3-1.2-8.5-2.6-12.4-4   c-23.9-8.8-32.4-18.7-32.4-24.6c0-0.3,0-0.6,0.1-0.9l-0.1,0v-13.4c-8.2-5.8-16.2-11.6-23.8-17.4v7.1c-25.6,19.5-47.6,38.6-65,56.3   c-3.5-2.1-7.6-3.2-12-3.2c-13.2,0-23.9,10.7-23.9,23.9c0,5.9,2.2,11.4,5.8,15.6c-13.2,20-16.6,35.8-10.1,47.1   c6.4,11.1,20.7,15.1,38.2,15.1c20.1,0,44.3-5.3,65.6-11.4c23.2-6.7,48.6-15.9,75.3-27.3C214,424.5,213.6,421.5,213.3,418.4z"></path></g></svg>