<?xml version="1.0" encoding="utf-8"?>
<!-- Generator: Adobe Illustrator 23.0.3, SVG Export Plug-In . SVG Version: 6.00 Build 0)  -->
<svg version="1.1" id="Layer_1" xmlns="http://www.w3.org/2000/svg" xmlns:xlink="http://www.w3.org/1999/xlink" x="0px" y="0px"
	 viewBox="0 0 1250 703" style="enable-background:new 0 0 1250 703;" xml:space="preserve">
<style type="text/css">
	.st0{fill:#737373;}
	.st1{fill:#F25022;}
	.st2{fill:#7FBA00;}
	.st3{fill:#00A4EF;}
	.st4{fill:#FFB900;}
</style>
<title>nvidia-partner-microsoft-azure-logo</title>
<g id="LOGO">
	<g id="svg2">
		<path class="st0" d="M556.7,367.7l33.5,88.9h-17l-7.9-22.1h-35l-7.6,22.1h-16.9l33.5-88.9H556.7z M547.5,384.1l-13.1,37.4H561
			L548,384.1H547.5z"/>
		<path class="st0" d="M597.7,392.8h50.9v6l-33.4,45.8h33.6v11.9h-53.4v-7.1l32.9-44.7h-30.6V392.8z"/>
		<path class="st0" d="M712.6,392.8v63.7h-15.1v-8.4h-0.2c-2,2.9-4.8,5.3-8,6.8c-3.5,1.7-7.3,2.5-11.2,2.4c-7.4,0-13-2.1-16.9-6.3
			s-5.8-10.7-5.8-19.5v-38.7h15.2v36.9c0,5.4,1.1,9.4,3.2,12.1s5.3,4.1,9.6,4.1c3.9,0.1,7.7-1.5,10.2-4.5c2.6-3,3.8-6.9,3.8-11.7
			v-36.9H712.6z"/>
		<path class="st0" d="M757.7,391.8c1.1,0,2.2,0.1,3.2,0.2c0.8,0.1,1.6,0.3,2.4,0.6v15.2c-1.1-0.7-2.2-1.3-3.4-1.6
			c-1.8-0.6-3.6-0.8-5.5-0.8c-3.7,0-7.1,1.7-9.3,4.6c-2.5,3.1-3.8,7.9-3.8,14.3v32.2h-15v-63.7h15v10h0.2c1.2-3.3,3.4-6.1,6.2-8.1
			C750.7,392.7,754.2,391.7,757.7,391.8z"/>
		<path class="st0" d="M817.3,440.5v12.3c-3,1.8-6.3,3.1-9.7,3.8c-4.2,1-8.5,1.5-12.8,1.5c-9.7,0-17.3-2.9-22.6-8.6
			c-5.4-5.7-8.1-13.7-8.1-24c0-9.9,2.9-18,8.6-24.4c5.5-6.3,13.5-9.8,21.9-9.6c8.8,0,15.6,2.7,20.5,8.1c4.9,5.4,7.3,12.8,7.3,22.3
			v7.3h-43.6c0.7,6.4,2.7,10.9,6.2,13.4s7.9,3.8,13.4,3.8c3.5,0,7-0.5,10.3-1.6C811.7,443.8,814.7,442.3,817.3,440.5z M807.7,418.2
			c0-5-1.1-8.7-3.4-11.3s-5.5-3.9-9.7-3.9c-3.6,0-7.1,1.4-9.7,3.9c-2.8,2.6-4.8,6.4-5.7,11.4L807.7,418.2z"/>
		<path class="st0" d="M607.3,245.5v88.9h-15.4v-69.7h-0.2l-27.6,69.7h-10.2l-28.3-69.7h-0.2v69.7h-14.3v-88.9h22.1l25.5,65.9h0.4
			l27-65.9H607.3z M620.2,252.3c0-2.4,0.9-4.6,2.7-6.2c1.7-1.6,4-2.5,6.4-2.5c2.4-0.1,4.8,0.9,6.6,2.6c1.7,1.6,2.6,3.8,2.6,6.2
			c0,2.3-0.9,4.6-2.7,6.1c-1.8,1.6-4.1,2.5-6.5,2.5c-2.4,0.1-4.7-0.8-6.5-2.5C621.2,256.8,620.2,254.6,620.2,252.3L620.2,252.3z
			 M636.8,270.7v63.7h-15v-63.7H636.8z M682.3,323.5c2.5-0.1,5-0.6,7.4-1.5c2.7-1,5.2-2.4,7.4-4.1v13.9c-2.6,1.4-5.3,2.5-8.1,3.1
			c-3.3,0.7-6.6,1.1-10,1.1c-9.4,0-17-3-22.9-8.9s-8.8-13.5-8.8-22.7c0-10.2,3-18.7,9-25.3s14.5-9.9,25.5-9.9c2.9,0,5.7,0.4,8.5,1.1
			c2.4,0.5,4.7,1.4,6.8,2.5V287c-2.2-1.6-4.6-2.9-7.1-3.9c-2.4-0.9-4.9-1.4-7.4-1.4c-5.9,0-10.7,1.9-14.3,5.8s-5.5,9-5.5,15.5
			c0,6.4,1.7,11.5,5.2,15.1S676.3,323.5,682.3,323.5L682.3,323.5z M739.8,269.6c1.1,0,2.2,0.1,3.2,0.2c0.8,0.1,1.6,0.3,2.4,0.6v15.2
			c-1.1-0.7-2.2-1.3-3.4-1.6c-1.8-0.6-3.6-0.8-5.5-0.8c-3.7,0-7.1,1.7-9.3,4.6c-2.5,3.1-3.8,7.9-3.8,14.3v32.2h-15v-63.7h15v10h0.2
			c1.2-3.3,3.4-6.1,6.2-8.1C732.7,270.5,736.2,269.5,739.8,269.6L739.8,269.6z M746.2,303.4c0-10.5,3-18.9,8.9-25
			c5.9-6.2,14.2-9.2,24.8-9.2c10,0,17.7,3,23.3,8.9c5.6,5.9,8.4,13.9,8.4,24c0,10.3-3,18.6-8.9,24.7s-14,9.2-24.3,9.2
			c-9.9,0-17.7-2.9-23.5-8.7C749.1,321.4,746.2,313.5,746.2,303.4L746.2,303.4z M761.8,302.9c0,6.7,1.5,11.7,4.5,15.2
			c3,3.5,7.3,5.3,13,5.3c5.5,0,9.6-1.8,12.5-5.3c2.8-3.5,4.3-8.7,4.3-15.6c0-6.9-1.5-12-4.4-15.5c-3-3.5-7.1-5.2-12.4-5.2
			c-5.5,0-9.8,1.8-12.8,5.5C763.3,290.9,761.8,296.2,761.8,302.9L761.8,302.9z M834,287.4c-0.1,1.9,0.6,3.8,2,5
			c1.4,1.2,4.4,2.8,9,4.6c6,2.4,10.2,5.1,12.6,8.1c2.4,3.1,3.7,6.9,3.6,10.9c0.2,5.6-2.4,11-6.9,14.4c-4.6,3.6-10.8,5.5-18.7,5.5
			c-2.9,0-5.9-0.4-8.8-1c-2.8-0.5-5.5-1.3-8.1-2.4v-14.7c2.7,1.9,5.7,3.4,8.8,4.5c2.7,1,5.6,1.6,8.6,1.7c3.4,0,5.9-0.5,7.5-1.4
			c1.6-1,2.6-2.9,2.4-4.8c0-2-0.9-4-2.5-5.2c-1.7-1.4-4.8-3.1-9.5-4.9c-5.5-2.3-9.5-4.9-11.8-7.8c-2.4-3.2-3.6-7.1-3.5-11
			c-0.1-5.5,2.4-10.8,6.8-14.2c4.6-3.7,10.5-5.5,17.8-5.5c2.5,0,5,0.3,7.5,0.7c2.4,0.4,4.7,1,6.9,1.9V286c-2.2-1.4-4.5-2.6-6.9-3.4
			c-2.5-0.9-5.2-1.4-7.9-1.4c-2.3-0.1-4.7,0.4-6.7,1.7C834.8,283.8,833.9,285.5,834,287.4L834,287.4z M867.7,303.4
			c0-10.5,3-18.9,8.9-25c5.9-6.2,14.2-9.2,24.8-9.2c10,0,17.7,3,23.3,8.9c5.6,5.9,8.4,13.9,8.4,24c0,10.3-3,18.6-8.9,24.7
			c-5.9,6.1-14,9.2-24.3,9.2c-9.9,0-17.7-2.9-23.5-8.7C870.6,321.4,867.7,313.5,867.7,303.4L867.7,303.4z M883.4,302.9
			c0,6.7,1.5,11.7,4.5,15.2c3,3.5,7.3,5.3,13,5.3c5.5,0,9.6-1.8,12.5-5.3c2.8-3.5,4.3-8.7,4.3-15.6c0-6.9-1.5-12-4.4-15.5
			c-3-3.5-7.1-5.2-12.4-5.2c-5.5,0-9.8,1.8-12.8,5.5C884.9,290.9,883.3,296.2,883.4,302.9L883.4,302.9z M982.9,282.9h-22.3v51.4
			h-15.2v-51.4h-10.7v-12.3h10.7v-8.9c0-6.7,2.2-12.2,6.5-16.5c4.4-4.3,9.9-6.4,16.8-6.4c1.6,0,3.2,0.1,4.8,0.3
			c1.3,0.2,2.5,0.4,3.7,0.8v13c-0.8-0.4-1.7-0.8-2.6-1.1c-1.4-0.4-2.8-0.6-4.3-0.6c-2.7-0.2-5.4,0.9-7.3,2.9c-1.7,2-2.5,4.9-2.5,8.7
			v7.7h22.3v-14.3l15.1-4.6v18.9h15.2v12.3H998v29.8c0,3.9,0.7,6.7,2.1,8.3c1.4,1.6,3.7,2.4,6.7,2.4c1.1,0,2.1-0.2,3.1-0.6
			c1.1-0.4,2.2-0.9,3.2-1.5v12.4c-1.5,0.7-3.1,1.2-4.7,1.5c-2.2,0.4-4.3,0.7-6.5,0.7c-6.3,0-11.1-1.7-14.2-5
			c-3.2-3.4-4.7-8.4-4.7-15.2L982.9,282.9z"/>
		<rect x="236.8" y="245.5" class="st1" width="100.3" height="100.3"/>
		<rect x="347.6" y="245.5" class="st2" width="100.3" height="100.3"/>
		<rect x="236.8" y="356.2" class="st3" width="100.3" height="100.3"/>
		<rect x="347.6" y="356.2" class="st4" width="100.3" height="100.3"/>
		<rect x="236.8" y="245.5" class="st1" width="100.3" height="100.3"/>
		<rect x="347.6" y="245.5" class="st2" width="100.3" height="100.3"/>
		<rect x="236.8" y="356.2" class="st3" width="100.3" height="100.3"/>
		<rect x="347.6" y="356.2" class="st4" width="100.3" height="100.3"/>
	</g>
</g>
</svg>
