<svg xmlns="http://www.w3.org/2000/svg" role="img" viewBox="-19.84 -19.84 1031.68 401.68"><title>mlflow-color.svg</title><style>svg {enable-background:new 0 0 992.9 362.4}</style><style>.st1{fill:#2e91cf}</style><path fill="#333" d="M0 281.7V139.9h32.4v18c8.2-14.6 25.9-22.1 42-22.1 18.7 0 35 8.5 42.6 25.1 11.1-18.7 27.7-25.1 46.1-25.1 25.7 0 50.1 16.3 50.1 53.9v92.1h-32.6v-86.6c0-16.6-8.5-29.1-27.4-29.1-17.8 0-29.4 14-29.4 31.5v84.2H90.4v-86.6c0-16.3-8.2-29.1-27.4-29.1-18.1 0-29.4 13.4-29.4 31.5v84.2L0 281.7zm254.4 0v-211h33.8v211h-33.8z"/><path d="M274.7 358.9c7.6 2.1 14.4 3.5 28.9 3.5 27 0 58.8-15.2 67.2-57.9l34.6-171.2h51.4l6.3-28.5h-51.9l7-34c5.3-26.4 20-39.8 43.4-39.8 6.1 0 4.4.5 9.8 1.6l7.5-29.2C471.6 1.3 465.1 0 451 0c-14.9-.2-29.5 4.5-41.4 13.5-13.2 10.2-21.9 25.1-25.8 44.4l-9.7 46.9h-46l-3.8 28.5h44.1l-31.7 158.3c-3.5 18-13.7 39.4-43 39.4-6.6 0-4.2-.5-10.2-1.5l-8.8 29.4z" class="st1"/><path fill="#4bc7eb" d="M655.9 148.8c-29.5-20.6-69.7-16.6-94.5 9.5-24.8 26.1-26.7 66.5-4.5 94.8l22.1-16.3c-11-13.6-13.2-32.4-5.7-48.2s23.4-26 40.9-26.2l-.5 17.3 42.2-30.9z"/><path d="M487.2 280.5h-33.8l46.3-212.9h33.8l-46.3 212.9zm185.1-115.6c-.7-1-1.5-2-2.3-3l-21.3 15.7c12 13.3 15.2 32.5 8 48.9-7.2 16.5-23.3 27.2-41.3 27.4l.5-17.3-42.7 31.5c29.3 19.7 68.5 15.5 92.9-9.9 24.5-25.4 27.1-64.8 6.3-93.2l-.1-.1zm41-25.1h36.9l7.5 96.9 52.6-96.9 35.1.5 13.8 96.4 46.3-96.9 33.8.5-70.1 141.5h-33.8l-16.3-101.4-53.8 101.4h-35.1l-16.9-142zm246.4 2.5h-7v-2.4h16.9v2.5h-7v20.5h-2.9v-20.6zm14.1-2.4h3.5l4.4 12.2c.6 1.6 1.1 3.2 1.6 4.8h.2c.5-1.6 1-3.2 1.6-4.8l4.4-12.2h3.5v23h-2.7v-12.7c0-2 .2-4.8.4-6.8h-.1l-1.7 5.2-4.3 11.9h-1.9l-4.4-11.9-1.7-5.2h-.1c.2 2 .4 4.8.4 6.8v12.7h-2.7l-.4-23z" class="st1"/></svg>