<svg height='100px' width='100px'  fill="#000000" xmlns:dc="http://purl.org/dc/elements/1.1/" xmlns:cc="http://creativecommons.org/ns#" xmlns:rdf="http://www.w3.org/1999/02/22-rdf-syntax-ns#" xmlns:svg="http://www.w3.org/2000/svg" xmlns="http://www.w3.org/2000/svg" xmlns:sodipodi="http://sodipodi.sourceforge.net/DTD/sodipodi-0.dtd" xmlns:inkscape="http://www.inkscape.org/namespaces/inkscape" version="1.1" x="0px" y="0px" viewBox="0 0 100 100"><g transform="translate(0,-952.36218)"><path style="text-indent:0;text-transform:none;direction:ltr;block-progression:tb;baseline-shift:baseline;color:#000000;enable-background:accumulate;" d="m 50,959.36219 c -8.96317,0 -17.09463,1.6713 -23.0625,4.4688 -5.96787,2.7974 -9.9375,6.8126 -9.9375,11.5312 l 0,54.00001 c 0,4.7186 3.96963,8.7026 9.9375,11.5 5.96787,2.7974 14.09933,4.5 23.0625,4.5 8.96322,0 17.09464,-1.7026 23.0625,-4.5 5.96786,-2.7974 9.9375,-6.7814 9.9375,-11.5 l 0,-54.00001 c 0,-4.7186 -3.96964,-8.7338 -9.9375,-11.5312 -5.96786,-2.7975 -14.09928,-4.4688 -23.0625,-4.4688 z m 0,2 c 8.70988,0 16.57363,1.6498 22.1875,4.2812 5.61387,2.6315 8.8125,6.1531 8.8125,9.7188 0,3.5657 -3.19863,7.056 -8.8125,9.6875 -5.61387,2.6315 -13.47762,4.3125 -22.1875,4.3125 -8.70983,0 -16.57362,-1.681 -22.1875,-4.3125 -5.61388,-2.6315 -8.8125,-6.1218 -8.8125,-9.6875 0,-3.5657 3.19862,-7.0873 8.8125,-9.7188 5.61388,-2.6314 13.47767,-4.2812 22.1875,-4.2812 z m -31,19.5625 c 1.73492,2.3114 4.501,4.3266 7.9375,5.9375 5.96787,2.7974 14.09933,4.5 23.0625,4.5 8.96322,0 17.09464,-1.7026 23.0625,-4.5 3.43649,-1.6109 6.20258,-3.6261 7.9375,-5.9375 l 0,12.4375 c 0,3.56569 -3.19863,7.05601 -8.8125,9.68751 -5.61387,2.6315 -13.47762,4.3125 -22.1875,4.3125 -8.70983,0 -16.57362,-1.681 -22.1875,-4.3125 C 22.19862,1000.4182 19,996.92788 19,993.36219 l 0,-12.4375 z m 0,17.96869 c 1.73375,2.32452 4.48652,4.35122 7.9375,5.96882 5.96787,2.7974 14.09933,4.5 23.0625,4.5 8.96322,0 17.09464,-1.7026 23.0625,-4.5 3.45097,-1.6176 6.20375,-3.6443 7.9375,-5.96882 l 0,12.46882 c 0,3.5657 -3.19863,7.056 -8.8125,9.6875 -5.61387,2.6315 -13.47762,4.3125 -22.1875,4.3125 -8.70983,0 -16.57362,-1.681 -22.1875,-4.3125 C 22.19862,1018.4182 19,1014.9279 19,1011.3622 l 0,-12.46882 z m 0,18.00002 c 1.73375,2.3245 4.48652,4.3512 7.9375,5.9688 5.96787,2.7974 14.09933,4.5 23.0625,4.5 8.96322,0 17.09464,-1.7026 23.0625,-4.5 3.45097,-1.6176 6.20375,-3.6443 7.9375,-5.9688 l 0,12.4688 c 0,3.5657 -3.19863,7.056 -8.8125,9.6875 -5.61387,2.6315 -13.47762,4.3125 -22.1875,4.3125 -8.70983,0 -16.57362,-1.681 -22.1875,-4.3125 C 22.19862,1036.4182 19,1032.9279 19,1029.3622 l 0,-12.4688 z" fill="#000000" fill-opacity="1" stroke="none" marker="none" visibility="visible" display="inline" overflow="visible"></path></g></svg>