<svg height='100px' width='100px'  fill="#000000" xmlns="http://www.w3.org/2000/svg" xmlns:xlink="http://www.w3.org/1999/xlink" version="1.1" x="0px" y="0px" viewBox="0 0 100 100" style="enable-background:new 0 0 100 100;" xml:space="preserve"><g><path d="M49,89c14.91,0,30-3.61,30-10.5v-20V38V18h-0.03C78.25,11.43,63.54,8,49,8s-29.25,3.43-29.97,10H19v20v20.5v20   C19,85.39,34.09,89,49,89z M49,12c16.82,0,26,4.29,26,6.5S65.82,25,49,25s-26-4.29-26-6.5S32.18,12,49,12z M23,38V24.02   C28.47,27.3,38.78,29,49,29s20.53-1.7,26-4.98V38v0.5c0,2.21-9.18,6.5-26,6.5s-26-4.29-26-6.5V38z M23,44.02   C28.47,47.3,38.78,49,49,49s20.53-1.7,26-4.98V58.5c0,2.21-9.18,6.5-26,6.5s-26-4.29-26-6.5V44.02z M23,64.02   C28.47,67.3,38.78,69,49,69s20.53-1.7,26-4.98V78.5c0,2.21-9.18,6.5-26,6.5s-26-4.29-26-6.5V64.02z"></path><path d="M68.95,37c1.66-0.01,2.99-1.37,2.98-3.02S70.56,30.99,68.9,31c-1.66,0.01-2.99,1.37-2.98,3.02   C65.94,35.68,67.29,37.01,68.95,37z"></path><path d="M69.1,57c1.66-0.01,2.99-1.37,2.98-3.02c-0.01-1.66-1.37-2.99-3.02-2.98c-1.66,0.01-2.99,1.37-2.98,3.02   S67.44,57.01,69.1,57z"></path><path d="M69.1,77c1.66-0.01,2.99-1.37,2.98-3.02c-0.01-1.66-1.37-2.99-3.02-2.98c-1.66,0.01-2.99,1.37-2.98,3.02   S67.44,77.01,69.1,77z"></path></g></svg>